<svg xmlns="http://www.w3.org/2000/svg" width="4096" height="3072" viewBox="0 0 4096 3072" role="img" aria-labelledby="title desc">
  <title id="title">Body mechanics</title><desc id="desc">The neutral model is a true biped: feet carry the body while the lifted tail visibly balances it.</desc>
  <defs>
    <filter id="contact-shadow" x="-30%" y="-80%" width="160%" height="260%">
      <feGaussianBlur stdDeviation="12" />
    </filter>
    <filter id="small-shadow" x="-40%" y="-40%" width="180%" height="180%">
      <feGaussianBlur stdDeviation="5" />
    </filter>
  </defs>
  <rect width="4096" height="3072" fill="#FFFFFF" />
  <text x="180" y="180" font-family="Arial, Helvetica, sans-serif" font-size="34" font-weight="700" fill="#0B0C0A" text-anchor="start">CANONICAL MODEL BIBLE · 03</text>
  <text x="180" y="315" font-family="Arial, Helvetica, sans-serif" font-size="92" font-weight="700" fill="#0B0C0A" text-anchor="start">Body mechanics</text>
  <text x="180" y="400" font-family="Arial, Helvetica, sans-serif" font-size="36" font-weight="400" fill="#666963" text-anchor="start">The neutral model is a true biped: feet carry the body while the lifted tail visibly balances it.</text>
  <g transform="translate(120 630) scale(1.02)"><g id="tail" data-layer="tail"><ellipse cx="512" cy="879" rx="248" ry="26" fill="#0B0C0A" opacity="0.12" filter="url(#contact-shadow)" /><path d="M584 650C704 633 842 668 922 754C950 784 940 825 900 838C811 861 716 821 625 758C590 734 568 696 584 650Z" fill="#C9F52B" /><path d="M0-56C32-50 44-17 0 50C-44-17-32-50 0-56Z" fill="#171816" transform="translate(632 668) rotate(60) scale(0.98)" /><path d="M0-56C32-50 44-17 0 50C-44-17-32-50 0-56Z" fill="#171816" transform="translate(698 687) rotate(67) scale(0.92)" /><path d="M0-56C32-50 44-17 0 50C-44-17-32-50 0-56Z" fill="#171816" transform="translate(763 716) rotate(73) scale(0.83)" /><path d="M0-56C32-50 44-17 0 50C-44-17-32-50 0-56Z" fill="#171816" transform="translate(824 751) rotate(79) scale(0.74)" /><path d="M0-56C32-50 44-17 0 50C-44-17-32-50 0-56Z" fill="#171816" transform="translate(877 788) rotate(84) scale(0.62)" /></g>
<g id="shadows" data-layer="shadows"><path d="M355 541C387 672 451 752 512 770C433 792 355 750 333 653C320 597 329 561 355 541Z" fill="#0B0C0A" opacity="0.09" /><path d="M420 347Q512 413 604 347Q584 404 512 421Q440 404 420 347Z" fill="#0B0C0A" opacity="0.10" /></g>
<g id="body" data-layer="body"><path d="M376 399C415 354 609 354 648 399C712 474 729 638 676 754C643 826 581 853 512 853C443 853 381 826 348 754C295 638 312 474 376 399Z" fill="#C9F52B" />
      <path d="M354 198C389 116 635 116 670 198C694 255 668 318 608 344C575 359 551 386 532 414C523 427 501 427 492 414C473 386 449 359 416 344C356 318 330 255 354 198Z" fill="#C9F52B" />
      <path d="M398 458C428 423 596 423 626 458C660 533 655 694 603 764C575 802 449 802 421 764C369 694 364 533 398 458Z" fill="#FFFFFF" /></g>
<g id="armour" data-layer="armour"><path d="M0-56C32-50 44-17 0 50C-44-17-32-50 0-56Z" fill="#171816" transform="translate(512 145) rotate(0) scale(1.05)" /><path d="M0-56C32-50 44-17 0 50C-44-17-32-50 0-56Z" fill="#171816" transform="translate(455 164) rotate(-28) scale(0.82)" /><path d="M0-56C32-50 44-17 0 50C-44-17-32-50 0-56Z" fill="#171816" transform="translate(569 164) rotate(28) scale(0.82)" /><path d="M0-56C32-50 44-17 0 50C-44-17-32-50 0-56Z" fill="#171816" transform="translate(408 220) rotate(-34) scale(0.72)" /><path d="M0-56C32-50 44-17 0 50C-44-17-32-50 0-56Z" fill="#171816" transform="translate(616 220) rotate(34) scale(0.72)" /><path d="M0-56C32-50 44-17 0 50C-44-17-32-50 0-56Z" fill="#171816" transform="translate(390 282) rotate(-28) scale(0.66)" /><path d="M0-56C32-50 44-17 0 50C-44-17-32-50 0-56Z" fill="#171816" transform="translate(634 282) rotate(28) scale(0.66)" /><path d="M354 320C319 398 312 527 345 624C364 667 398 677 425 647C392 568 390 446 424 348Z" fill="#171816" />
    <path d="M670 320C705 398 712 527 679 624C660 667 626 677 599 647C632 568 634 446 600 348Z" fill="#171816" />
    <path d="M0-56C32-50 44-17 0 50C-44-17-32-50 0-56Z" fill="#2B2D28" transform="translate(378 350) rotate(-32) scale(0.9)" /><path d="M0-56C32-50 44-17 0 50C-44-17-32-50 0-56Z" fill="#2B2D28" transform="translate(646 350) rotate(32) scale(0.9)" />
    <path d="M0-56C32-50 44-17 0 50C-44-17-32-50 0-56Z" fill="#171816" transform="translate(360 430) rotate(-27) scale(0.86)" /><path d="M0-56C32-50 44-17 0 50C-44-17-32-50 0-56Z" fill="#171816" transform="translate(664 430) rotate(27) scale(0.86)" />
    <path d="M0-56C32-50 44-17 0 50C-44-17-32-50 0-56Z" fill="#2B2D28" transform="translate(358 512) rotate(-22) scale(0.8)" /><path d="M0-56C32-50 44-17 0 50C-44-17-32-50 0-56Z" fill="#2B2D28" transform="translate(666 512) rotate(22) scale(0.8)" />
    <path d="M0-56C32-50 44-17 0 50C-44-17-32-50 0-56Z" fill="#171816" transform="translate(372 590) rotate(-17) scale(0.72)" /><path d="M0-56C32-50 44-17 0 50C-44-17-32-50 0-56Z" fill="#171816" transform="translate(652 590) rotate(17) scale(0.72)" /></g>
<g id="limbs" data-layer="limbs"><path d="M401 494C357 520 352 590 392 622C423 616 442 585 433 548C426 518 418 500 401 494Z" fill="#D8F95B" />
    <path d="M623 494C667 520 672 590 632 622C601 616 582 585 591 548C598 518 606 500 623 494Z" fill="#C9F52B" />
    <g transform="translate(392 616) rotate(90) scale(0.72)">
    <ellipse cx="-18" cy="0" rx="10" ry="22" fill="#0B0C0A" transform="rotate(-24 -18 0)" />
    <ellipse cx="0" cy="-2" rx="10" ry="24" fill="#0B0C0A" />
    <ellipse cx="18" cy="0" rx="10" ry="22" fill="#0B0C0A" transform="rotate(24 18 0)" />
  </g><g transform="translate(632 616) rotate(-90) scale(0.72)">
    <ellipse cx="-18" cy="0" rx="10" ry="22" fill="#0B0C0A" transform="rotate(-24 -18 0)" />
    <ellipse cx="0" cy="-2" rx="10" ry="24" fill="#0B0C0A" />
    <ellipse cx="18" cy="0" rx="10" ry="22" fill="#0B0C0A" transform="rotate(24 18 0)" />
  </g><path d="M386 725C352 758 348 831 374 862C406 878 466 873 478 845C478 817 451 789 431 748Z" fill="#D8F95B" /><path d="M638 725C672 758 676 831 650 862C618 878 558 873 546 845C546 817 573 789 593 748Z" fill="#C9F52B" /><g transform="translate(421 854) rotate(90) scale(0.8)">
    <ellipse cx="-18" cy="0" rx="10" ry="22" fill="#0B0C0A" transform="rotate(-24 -18 0)" />
    <ellipse cx="0" cy="-2" rx="10" ry="24" fill="#0B0C0A" />
    <ellipse cx="18" cy="0" rx="10" ry="22" fill="#0B0C0A" transform="rotate(24 18 0)" />
  </g><g transform="translate(603 854) rotate(-90) scale(0.8)">
    <ellipse cx="-18" cy="0" rx="10" ry="22" fill="#0B0C0A" transform="rotate(-24 -18 0)" />
    <ellipse cx="0" cy="-2" rx="10" ry="24" fill="#0B0C0A" />
    <ellipse cx="18" cy="0" rx="10" ry="22" fill="#0B0C0A" transform="rotate(24 18 0)" />
  </g></g>
<g id="highlights" data-layer="highlights"><path d="M388 216C405 169 451 151 481 151C439 183 417 235 423 294C389 280 374 247 388 216Z" fill="#D8F95B" opacity="0.82" /><path d="M371 538C356 600 368 682 407 727C390 647 401 564 426 498C395 501 379 514 371 538Z" fill="#D8F95B" opacity="0.76" /></g>
<g id="marking" data-layer="marking"><g data-pip-purpose-mark="left-flank" transform="translate(620 690) scale(0.88)">
    <circle r="34" fill="#D8F95B" opacity="0.92" />
    <circle r="20" fill="none" stroke="#FFFFFF" stroke-width="8" />
    <circle r="6" fill="#FFFFFF" />
  </g></g>
<g id="face" data-layer="face">
    <ellipse cx="448" cy="276" rx="37" ry="45" fill="#FFFFFF" />
    <ellipse cx="576" cy="276" rx="37" ry="45" fill="#FFFFFF" />
    <circle cx="448" cy="282" r="18" fill="#0B0C0A" />
    <circle cx="576" cy="282" r="18" fill="#0B0C0A" />
    <circle cx="454" cy="274" r="6" fill="#FFFFFF" />
    <circle cx="582" cy="274" r="6" fill="#FFFFFF" />
    <path d="M416 218Q448 199 478 217" fill="none" stroke="#0B0C0A" stroke-width="12" stroke-linecap="round" />
    <path d="M546 217Q576 199 608 218" fill="none" stroke="#0B0C0A" stroke-width="12" stroke-linecap="round" />
    <ellipse cx="512" cy="336" rx="34" ry="24" fill="#D8F95B" />
    <circle cx="499" cy="337" r="7" fill="#0B0C0A" />
    <circle cx="525" cy="337" r="7" fill="#0B0C0A" />
    <path d="M476 356Q512 378 548 356" fill="none" stroke="#0B0C0A" stroke-width="9" stroke-linecap="round" /></g>
<g id="outlines" data-layer="outlines"></g>
<g id="accessories" data-layer="accessories"></g></g><text x="642.24" y="1619.4" font-family="Arial, Helvetica, sans-serif" font-size="30" font-weight="700" fill="#0B0C0A" text-anchor="middle">NEUTRAL SUPPORT</text>
    <path d="M642 740V2460" stroke="#A83936" stroke-width="8" stroke-dasharray="24 18" opacity="0.65" />
    <path d="M438 2470H846L790 2590H494Z" fill="#C9F52B" opacity="0.45" />
    <text x="642" y="2680" font-family="Arial, Helvetica, sans-serif" font-size="28" font-weight="700" fill="#0B0C0A" text-anchor="middle">CENTER OF MASS STAYS BETWEEN BOTH FEET</text><g transform="translate(1390 630) scale(1.02)"><g id="tail" data-layer="tail"></g>
<g id="shadows" data-layer="shadows"></g>
<g id="body" data-layer="body"><g >
    <ellipse cx="514" cy="882" rx="260" ry="24" fill="#0B0C0A" opacity="0.12" filter="url(#contact-shadow)" />
    <path d="M448 635C305 632 156 684 80 765C55 792 66 827 102 839C199 859 292 819 392 748C428 722 456 683 448 635Z" fill="#C9F52B" />
    <path d="M426 635C312 638 183 688 96 775C143 759 221 734 370 724Z" fill="#171816" />
    <path d="M0-56C32-50 44-17 0 50C-44-17-32-50 0-56Z" fill="#2B2D28" transform="translate(414 660) rotate(-58) scale(1.02)" /><path d="M0-56C32-50 44-17 0 50C-44-17-32-50 0-56Z" fill="#171816" transform="translate(349 679) rotate(-66) scale(0.98)" /><path d="M0-56C32-50 44-17 0 50C-44-17-32-50 0-56Z" fill="#2B2D28" transform="translate(282 704) rotate(-72) scale(0.9)" /><path d="M0-56C32-50 44-17 0 50C-44-17-32-50 0-56Z" fill="#171816" transform="translate(219 738) rotate(-78) scale(0.8)" /><path d="M0-56C32-50 44-17 0 50C-44-17-32-50 0-56Z" fill="#2B2D28" transform="translate(163 777) rotate(-83) scale(0.68)" />
    <path d="M382 414C430 367 579 366 634 418C706 487 718 649 662 762C629 827 568 850 499 846C421 842 358 802 338 728C307 613 321 486 382 414Z" fill="#C9F52B" />
    <path d="M379 211C415 139 563 128 627 181C665 213 680 258 726 279C770 299 785 337 758 365C728 395 673 389 627 376C599 368 574 386 551 415C525 447 470 445 430 416C371 374 342 286 379 211Z" fill="#C9F52B" />
    <path d="M382 475C404 448 459 444 480 472C511 553 503 686 457 762C429 753 403 728 388 688C360 615 357 524 382 475Z" fill="#FFFFFF" />
    <path d="M355 548C347 633 370 716 423 766C389 742 353 719 337 670C320 616 326 574 355 548Z" fill="#0B0C0A" opacity="0.09" />
    <path d="M404 226C427 175 475 157 520 159C475 193 457 245 466 300C420 296 387 269 404 226Z" fill="#D8F95B" opacity="0.82" />
    <path d="M443 143C372 154 346 231 354 321C360 402 326 524 350 604C369 662 406 677 435 643C404 504 416 370 455 276C480 216 478 171 443 143Z" fill="#171816" />
    <path d="M0-56C32-50 44-17 0 50C-44-17-32-50 0-56Z" fill="#2B2D28" transform="translate(432 166) rotate(12) scale(1.08)" /><path d="M0-56C32-50 44-17 0 50C-44-17-32-50 0-56Z" fill="#171816" transform="translate(390 213) rotate(-8) scale(1.02)" /><path d="M0-56C32-50 44-17 0 50C-44-17-32-50 0-56Z" fill="#2B2D28" transform="translate(369 279) rotate(-22) scale(0.96)" />
    <path d="M0-56C32-50 44-17 0 50C-44-17-32-50 0-56Z" fill="#171816" transform="translate(365 360) rotate(-30) scale(0.9)" /><path d="M0-56C32-50 44-17 0 50C-44-17-32-50 0-56Z" fill="#2B2D28" transform="translate(354 438) rotate(-24) scale(0.86)" /><path d="M0-56C32-50 44-17 0 50C-44-17-32-50 0-56Z" fill="#171816" transform="translate(352 516) rotate(-18) scale(0.8)" /><path d="M0-56C32-50 44-17 0 50C-44-17-32-50 0-56Z" fill="#2B2D28" transform="translate(368 592) rotate(-14) scale(0.72)" />
    <path d="M433 510C390 544 390 626 435 654C470 642 489 607 477 565C468 535 453 515 433 510Z" fill="#D8F95B" />
    <g transform="translate(438 645) rotate(90) scale(0.72)">
    <ellipse cx="-18" cy="0" rx="10" ry="22" fill="#0B0C0A" transform="rotate(-24 -18 0)" />
    <ellipse cx="0" cy="-2" rx="10" ry="24" fill="#0B0C0A" />
    <ellipse cx="18" cy="0" rx="10" ry="22" fill="#0B0C0A" transform="rotate(24 18 0)" />
  </g>
    <path d="M394 724C356 768 359 834 387 862C427 876 482 868 493 842C487 806 454 769 440 737Z" fill="#D8F95B" />
    <path d="M573 727C611 762 625 827 596 858C559 872 510 863 502 838C511 804 534 765 545 738Z" fill="#C9F52B" />
    <g transform="translate(428 853) rotate(90) scale(0.78)">
    <ellipse cx="-18" cy="0" rx="10" ry="22" fill="#0B0C0A" transform="rotate(-24 -18 0)" />
    <ellipse cx="0" cy="-2" rx="10" ry="24" fill="#0B0C0A" />
    <ellipse cx="18" cy="0" rx="10" ry="22" fill="#0B0C0A" transform="rotate(24 18 0)" />
  </g><g transform="translate(560 852) rotate(-90) scale(0.72)">
    <ellipse cx="-18" cy="0" rx="10" ry="22" fill="#0B0C0A" transform="rotate(-24 -18 0)" />
    <ellipse cx="0" cy="-2" rx="10" ry="24" fill="#0B0C0A" />
    <ellipse cx="18" cy="0" rx="10" ry="22" fill="#0B0C0A" transform="rotate(24 18 0)" />
  </g>
    <ellipse cx="608" cy="279" rx="37" ry="44" fill="#FFFFFF" /><circle cx="618" cy="284" r="18" fill="#0B0C0A" /><circle cx="625" cy="276" r="6" fill="#FFFFFF" />
    <path d="M578 218Q611 199 642 218" fill="none" stroke="#0B0C0A" stroke-width="12" stroke-linecap="round" />
    <circle cx="751" cy="326" r="10" fill="#0B0C0A" />
    <path d="M675 354Q716 378 748 350" fill="none" stroke="#0B0C0A" stroke-width="9" stroke-linecap="round" />
  </g></g>
<g id="armour" data-layer="armour"></g>
<g id="limbs" data-layer="limbs"></g>
<g id="highlights" data-layer="highlights"></g>
<g id="marking" data-layer="marking"></g>
<g id="face" data-layer="face"></g>
<g id="outlines" data-layer="outlines"></g>
<g id="accessories" data-layer="accessories"></g></g><text x="1912.24" y="1619.4" font-family="Arial, Helvetica, sans-serif" font-size="30" font-weight="700" fill="#0B0C0A" text-anchor="middle">TAIL COUNTERBALANCE</text>
    <path d="M1940 1210C2290 1070 2610 1210 2785 1530" fill="none" stroke="#A83936" stroke-width="8" stroke-dasharray="24 18" />
    <path d="M2755 1492L2790 1545L2727 1542" fill="#A83936" />
    <text x="1900" y="2680" font-family="Arial, Helvetica, sans-serif" font-size="28" font-weight="700" fill="#0B0C0A" text-anchor="middle">TAIL ROOT REMAINS ATTACHED TO THE PELVIS</text><g transform="translate(2810 680)"><rect width="1080" height="1860" rx="70" fill="#F2F3F0" />
    <text x="80" y="120" font-family="Arial, Helvetica, sans-serif" font-size="38" font-weight="700" fill="#0B0C0A" text-anchor="start">POSTURE LIMITS</text>
    <text x="80" y="230" font-family="Arial, Helvetica, sans-serif" font-size="28" font-weight="700" fill="#666963" text-anchor="start">01</text><text x="150" y="230" font-family="Arial, Helvetica, sans-serif" font-size="30" font-weight="600" fill="#0B0C0A" text-anchor="start">Both hind feet show contact.</text>
    <text x="80" y="330" font-family="Arial, Helvetica, sans-serif" font-size="28" font-weight="700" fill="#666963" text-anchor="start">02</text><text x="150" y="330" font-family="Arial, Helvetica, sans-serif" font-size="30" font-weight="600" fill="#0B0C0A" text-anchor="start">Knees bend toward the toes.</text>
    <text x="80" y="430" font-family="Arial, Helvetica, sans-serif" font-size="28" font-weight="700" fill="#666963" text-anchor="start">03</text><text x="150" y="430" font-family="Arial, Helvetica, sans-serif" font-size="30" font-weight="600" fill="#0B0C0A" text-anchor="start">Hips carry the torso mass.</text>
    <text x="80" y="530" font-family="Arial, Helvetica, sans-serif" font-size="28" font-weight="700" fill="#666963" text-anchor="start">04</text><text x="150" y="530" font-family="Arial, Helvetica, sans-serif" font-size="30" font-weight="600" fill="#0B0C0A" text-anchor="start">Tail offsets forward lean.</text>
    <text x="80" y="630" font-family="Arial, Helvetica, sans-serif" font-size="28" font-weight="700" fill="#666963" text-anchor="start">05</text><text x="150" y="630" font-family="Arial, Helvetica, sans-serif" font-size="30" font-weight="600" fill="#0B0C0A" text-anchor="start">Hands gesture within reach.</text>
    <rect x="80" y="770" width="920" height="340" rx="44" fill="#FFFFFF" />
    <text x="130" y="850" font-family="Arial, Helvetica, sans-serif" font-size="28" font-weight="700" fill="#0B0C0A" text-anchor="start">CROUCH</text><text x="130" y="910" font-family="Arial, Helvetica, sans-serif" font-size="26" font-weight="400" fill="#666963" text-anchor="start">Lower hips and widen both feet.</text>
    <ellipse cx="540" cy="1040" rx="260" ry="34" fill="#0B0C0A" opacity=".1" /><ellipse cx="540" cy="970" rx="180" ry="120" fill="#C9F52B" />
    <rect x="80" y="1170" width="920" height="340" rx="44" fill="#FFFFFF" />
    <text x="130" y="1250" font-family="Arial, Helvetica, sans-serif" font-size="28" font-weight="700" fill="#0B0C0A" text-anchor="start">STEP</text><text x="130" y="1310" font-family="Arial, Helvetica, sans-serif" font-size="26" font-weight="400" fill="#666963" text-anchor="start">Support foot stays under the hip.</text>
    <path d="M400 1430Q540 1320 680 1430" fill="none" stroke="#C9F52B" stroke-width="90" stroke-linecap="round" />
    <rect x="80" y="1570" width="920" height="210" rx="44" fill="#FDE5E3" />
    <text x="130" y="1660" font-family="Arial, Helvetica, sans-serif" font-size="28" font-weight="700" fill="#A83936" text-anchor="start">NEVER</text><text x="130" y="1720" font-family="Arial, Helvetica, sans-serif" font-size="26" font-weight="600" fill="#A83936" text-anchor="start">float the nose, feet, or tail root</text>
  </g>
  <text x="180" y="2980" font-family="Arial, Helvetica, sans-serif" font-size="28" font-weight="700" fill="#666963" text-anchor="start">PIP-V1 · ELECTRIC LIME · BORDERLESS 2D MASTER</text>
</svg>